<svg id="Capa_1" data-name="Capa 1" xmlns="http://www.w3.org/2000/svg" viewBox="0 0 405.77 228.07"><defs><style>.cls-1,.cls-7{fill:#00b0d6;}.cls-2,.cls-6{fill:#424445;}.cls-3{fill:#24869a;}.cls-4{fill:#26798d;}.cls-5{fill:#21778e;}.cls-6{stroke:#424445;}.cls-6,.cls-7{stroke-miterlimit:10;stroke-width:2px;}.cls-7{stroke:#00b0d6;}</style></defs><title>logo_publisbolivia_completo2</title><path class="cls-1" d="M319.44,164.58a48.09,48.09,0,0,0,5.88.21c5.61.17,11.22.19,16.76,1.2A46,46,0,0,1,354,169.64a38.72,38.72,0,0,1,10.7,8.24,36.82,36.82,0,0,1,7.24,10.6,36.22,36.22,0,0,1,2.79,9.67,41.79,41.79,0,0,1-.48,14.33c-1.51,7.65-4.37,14.68-10,20.35a35.81,35.81,0,0,1-16,9.24,52.29,52.29,0,0,1-22.21,1.45,34.13,34.13,0,0,1-12.33-4.76,45.66,45.66,0,0,1-6.46-4.86,29.44,29.44,0,0,1-5.81-7.28,2.59,2.59,0,0,0-.75-1.31,35.51,35.51,0,0,1-4.1-10.29c0-.42.09-.86-.22-1.23a1.39,1.39,0,0,1-.12-.28c-.16-.62.09-1.32-.37-1.88-.58-1.39-.44-2.92-.84-4.35a33.74,33.74,0,0,1-.29-3.49,16.6,16.6,0,0,0-3.89-10.91,11.16,11.16,0,0,0-8.39-3.94,17.78,17.78,0,0,0-10.21,2.36,14.08,14.08,0,0,0-7.41,12.4c-.09,4.14,0,8.29,0,12.44,0,1.37-.22,2.72-.24,4.09a.84.84,0,0,1-.41.86,3.27,3.27,0,0,1-1.28.16c-7,0-13.9-.07-20.85.05a1,1,0,0,1-1-.38c0-1.17-.05-2.33-.05-3.5,0-5.42.13-10.84,0-16.24-.12-3.61.88-6.9,2-10.22a36.73,36.73,0,0,1,5.25-10.16A37.24,37.24,0,0,1,260.66,170a44.14,44.14,0,0,1,14.86-5c7.07-1.07,14-.89,20.7,2.15a4.45,4.45,0,0,1,2.16.89,37.83,37.83,0,0,1,13.14,12.32c.54.81,1.1,1.59,1.56,2.45a6.08,6.08,0,0,0,.89,1.69,81.79,81.79,0,0,1,3.69,11c.57,2.16.88,4.37,1.31,6.56.42,1.69.61,3.42,1.08,5.09a22.82,22.82,0,0,0,3.5,7.81,14.12,14.12,0,0,0,9.59,5.44c5,.77,9.13-.95,12.72-4.42a14.11,14.11,0,0,0,4.37-8.56c.9-7.07-1.53-13.45-8.75-16.64a17.87,17.87,0,0,0-6.46-1.24c-2.89-.14-5.8.1-8.7-.21-2-.21-4,.25-6,.18-.48,0-1,.1-1.35-.44a7.3,7.3,0,0,1-.27-3.47c.1-1,.1-1.93.14-2.9.26-5.61.18-11.22.21-16.83C319.05,165.41,319,164.9,319.44,164.58Z" transform="translate(-94.03 -136.65)"/><path class="cls-2" d="M296.87,214.93a38.12,38.12,0,0,0,2.61,7.48c.44,1,1,1.94,1.45,2.91.32.37.47.84.77,1.23a32.29,32.29,0,0,0,5.33,6.76c.18.19.31.33.27.59-1.08.8-1.71,2-2.72,2.9a29.07,29.07,0,0,1-10.8,5.71,64.23,64.23,0,0,1-19.62,2.84c-3.27,0-6.55,0-9.82,0a1.3,1.3,0,0,1-1.22.29,36.1,36.1,0,0,0-5.3-.15c-5.15,0-10.3,0-15.45,0a2.4,2.4,0,0,1-1.63-.3c-2.81-.05-5.61-.12-8.42-.14-4,0-8.09-.07-12.13,0-1,0-1.2-.31-1.2-1.25,0-5.35-.05-10.69-.2-16,0-1.84,0-3.68-.11-5.51-.07-.94.34-1.13,1.14-1.13l8.62,0,11.73,0a1.75,1.75,0,0,0,1-.14,4.37,4.37,0,0,0,1.87,0q10.3,0,20.61,0a7.29,7.29,0,0,0,.79-.08,2.28,2.28,0,0,1,1.36-.2c4.11,0,8.22,0,12.33,0a16.13,16.13,0,0,0,7.1-1.5c3.71-1.87,6.17-4.93,8.09-8.5.42-.79.82-1.6,1.19-2.43.17-.39.29-.84.75-1,.57,1.45.47,3,.87,4.5.36.62.09,1.37.4,2h0C296.85,214,296.54,214.58,296.87,214.93Z" transform="translate(-94.03 -136.65)"/><path class="cls-2" d="M319.44,164.58c0,2.74-.06,5.49-.1,8.23-.06,3.8-.09,7.61-.21,11.42a26,26,0,0,0,.05,5,1,1,0,0,1,.22.75c-.26,3.52,0,7-.13,10.56,0,.52,0,1.08-.49,1.44a4.7,4.7,0,0,1-.48-2,73.94,73.94,0,0,0-4.5-15.22,1.47,1.47,0,0,1-.05-.29c-.2-.57-.62-1-.84-1.57a54.3,54.3,0,0,0-5.24-7.09,34.58,34.58,0,0,0-10.42-8c-.36-.18-.69-.4-1-.61,0-1.2,0-2.4,0-3.6q0-12.93,0-25.85c0-.72.09-1.05.95-1q11,.19,22,.28c.8,0,.6.27.57.83-.11,1.89-.09,3.8-.1,5.7q-.09,8.06-.17,16.12C319.51,161.25,319.47,162.92,319.44,164.58Z" transform="translate(-94.03 -136.65)"/><path class="cls-1" d="M240.74,245.22c2.8,0,5.6-.05,8.4-.05s5.87.05,8.81,0c2.13,0,4.26,0,6.39.18q-.06,12.78-.12,25.56c0,.57-.21.76-.76.76q-11.15,0-22.27,0c-.82,0-.8-.46-.79-1,.1-5.74.21-11.49.29-17.23C240.73,250.7,240.72,248,240.74,245.22Z" transform="translate(-94.03 -136.65)"/><path class="cls-3" d="M296.51,213.69a3,3,0,0,1-.4-2C296.89,212.23,296.33,213,296.51,213.69Z" transform="translate(-94.03 -136.65)"/><path class="cls-4" d="M312.91,182.85c.4.46.91.85.84,1.57C313.36,184,312.84,183.56,312.91,182.85Z" transform="translate(-94.03 -136.65)"/><path class="cls-3" d="M296.87,214.93c-.63-.26-.28-.81-.36-1.24C297.2,213.94,296.79,214.51,296.87,214.93Z" transform="translate(-94.03 -136.65)"/><path class="cls-5" d="M301.7,226.55a1.49,1.49,0,0,1-.77-1.23C301.48,225.54,301.59,226.05,301.7,226.55Z" transform="translate(-94.03 -136.65)"/><path class="cls-6" d="M129.27,330.43q0,8.79-4,14.08a12.81,12.81,0,0,1-10.77,5.29,11.86,11.86,0,0,1-9.32-4v17.93H95V311.06h9.42l.35,3.72a12,12,0,0,1,9.64-4.43,12.87,12.87,0,0,1,10.93,5.21q3.9,5.19,3.9,14.34Zm-10.16-.74c0-3.54-.62-6.27-1.88-8.19a6.12,6.12,0,0,0-5.46-2.89q-4.78,0-6.58,3.66v15.57q1.86,3.77,6.65,3.77Q119.12,341.61,119.11,329.69Z" transform="translate(-94.03 -136.65)"/><path class="cls-6" d="M158.35,345.23a12.77,12.77,0,0,1-10.41,4.57q-6.12,0-9.33-3.52T135.32,336V311.06h10.16v24.6c0,4,1.81,5.95,5.41,5.95s5.82-1.2,7.11-3.59v-27h10.19v38h-9.56Z" transform="translate(-94.03 -136.65)"/><path class="cls-6" d="M210.13,330.43q0,9.13-3.9,14.25a12.92,12.92,0,0,1-10.9,5.12,11.87,11.87,0,0,1-9.88-4.75l-.45,4h-9.14v-54H186v19.38a11.54,11.54,0,0,1,9.24-4.12,13,13,0,0,1,10.92,5.12q3.94,5.11,3.95,14.39ZM200,329.69c0-3.85-.61-6.65-1.83-8.42a6.16,6.16,0,0,0-5.44-2.66q-4.86,0-6.68,4v15q1.86,4,6.75,4t6.46-4.86A24.66,24.66,0,0,0,200,329.69Z" transform="translate(-94.03 -136.65)"/><path class="cls-6" d="M227.11,349.09H216.92v-54h10.19Z" transform="translate(-94.03 -136.65)"/><path class="cls-6" d="M235.41,301.21a5,5,0,0,1,1.53-3.76,6.57,6.57,0,0,1,8.31,0,4.94,4.94,0,0,1,1.55,3.76,5,5,0,0,1-1.56,3.8,6.52,6.52,0,0,1-8.27,0A5,5,0,0,1,235.41,301.21Zm10.79,47.88H236v-38H246.2Z" transform="translate(-94.03 -136.65)"/><path class="cls-6" d="M275.17,338.58a3.26,3.26,0,0,0-1.84-2.93,20.74,20.74,0,0,0-5.93-1.92q-13.56-2.85-13.57-11.53a10.45,10.45,0,0,1,4.2-8.45q4.2-3.4,11-3.4,7.25,0,11.58,3.41a10.75,10.75,0,0,1,4.35,8.86H274.79a4.91,4.91,0,0,0-1.41-3.6,6,6,0,0,0-4.4-1.43,6.1,6.1,0,0,0-4,1.16,3.66,3.66,0,0,0-1.4,3,3.12,3.12,0,0,0,1.6,2.72,16.51,16.51,0,0,0,5.39,1.8,43.91,43.91,0,0,1,6.4,1.7q8.06,3,8.05,10.23a9.93,9.93,0,0,1-4.46,8.42q-4.47,3.23-11.54,3.22a20.11,20.11,0,0,1-8.49-1.71,14.13,14.13,0,0,1-5.81-4.67,10.84,10.84,0,0,1-2.11-6.42h9.63a5.29,5.29,0,0,0,2,4.15,8,8,0,0,0,5,1.44,7.36,7.36,0,0,0,4.41-1.11A3.44,3.44,0,0,0,275.17,338.58Z" transform="translate(-94.03 -136.65)"/><path class="cls-7" d="M325.87,330.43q0,9.13-3.9,14.25a13,13,0,0,1-10.9,5.12,11.86,11.86,0,0,1-9.88-4.75l-.46,4h-9.14v-54h10.16v19.38a11.56,11.56,0,0,1,9.25-4.12,13,13,0,0,1,10.91,5.12q4,5.11,4,14.39Zm-10.16-.74c0-3.85-.61-6.65-1.83-8.42a6.19,6.19,0,0,0-5.45-2.66q-4.85,0-6.68,4v15q1.86,4,6.75,4t6.47-4.86A25,25,0,0,0,315.71,329.69Z" transform="translate(-94.03 -136.65)"/><path class="cls-7" d="M330.54,329.72a22.63,22.63,0,0,1,2.18-10.09,16,16,0,0,1,6.28-6.85,18.28,18.28,0,0,1,9.51-2.43,17.34,17.34,0,0,1,12.57,4.71q4.86,4.71,5.43,12.8l.07,2.6q0,8.76-4.89,14.05t-13.11,5.29q-8.24,0-13.13-5.28t-4.91-14.34Zm10.16.72c0,3.62.68,6.38,2,8.3a7.32,7.32,0,0,0,11.6,0q2.09-2.83,2.08-9.06,0-5.32-2.08-8.24a6.73,6.73,0,0,0-5.83-2.93,6.63,6.63,0,0,0-5.77,2.91C341.38,323.39,340.7,326.38,340.7,330.44Z" transform="translate(-94.03 -136.65)"/><path class="cls-7" d="M383.56,349.09h-10.2v-54h10.2Z" transform="translate(-94.03 -136.65)"/><path class="cls-7" d="M391.86,301.21a5,5,0,0,1,1.52-3.76,6.59,6.59,0,0,1,8.32,0,5.36,5.36,0,0,1,0,7.56,6.5,6.5,0,0,1-8.26,0A5,5,0,0,1,391.86,301.21Zm10.79,47.88h-10.2v-38h10.2Z" transform="translate(-94.03 -136.65)"/><path class="cls-7" d="M425.25,336.68l7.07-25.62h10.62l-12.83,38H420.4l-12.83-38h10.62Z" transform="translate(-94.03 -136.65)"/><path class="cls-7" d="M447.33,301.21a5,5,0,0,1,1.53-3.76,6.59,6.59,0,0,1,8.32,0,5.38,5.38,0,0,1,0,7.56,6.5,6.5,0,0,1-8.26,0A5,5,0,0,1,447.33,301.21Zm10.8,47.88h-10.2v-38h10.2Z" transform="translate(-94.03 -136.65)"/><path class="cls-7" d="M488.54,349.09a11.18,11.18,0,0,1-1-3.41,12.29,12.29,0,0,1-9.6,4.12,13.5,13.5,0,0,1-9.27-3.24,10.41,10.41,0,0,1-3.67-8.15,10.74,10.74,0,0,1,4.48-9.28q4.49-3.24,13-3.27h4.67v-2.18a6.27,6.27,0,0,0-1.35-4.22,5.31,5.31,0,0,0-4.27-1.58,6.08,6.08,0,0,0-4,1.23,4.18,4.18,0,0,0-1.46,3.37H465.82a10.23,10.23,0,0,1,2-6.12,13.52,13.52,0,0,1,5.77-4.41,21.1,21.1,0,0,1,8.37-1.6q7,0,11.16,3.54t4.13,9.93v16.49c0,3.6.53,6.34,1.51,8.19v.59ZM480.13,342a8.83,8.83,0,0,0,4.15-1,6.59,6.59,0,0,0,2.81-2.69V331.8H483.3q-7.64,0-8.12,5.27l0,.6a4.08,4.08,0,0,0,1.34,3.13A5.18,5.18,0,0,0,480.13,342Z" transform="translate(-94.03 -136.65)"/></svg>