<svg
                
                id="Capa_1"
                data-name="Capa 1"
                xmlns="http://www.w3.org/2000/svg"
                viewBox="0 0 56.55 18.9"
              >
                <defs>
                  <style>
                    .cls-1 {
                      fill: #042d3e;
                    }

                    .cls-2 {
                      fill: #ee731b;
                    }

                    .cls-3 {
                      fill: #072d3d;
                    }

                    .cls-4 {
                      fill: #ee7318;
                    }

                    .cls-5 {
                      fill: #424547;
                    }
                  </style>
                </defs>
                <title>logo entero</title>
                <path
                  class="cls-1"
                  d="M175.48,480.6a2.49,2.49,0,0,0-.61.08,2.78,2.78,0,0,0-.4.16,1.69,1.69,0,0,0-.36.23,2.13,2.13,0,0,0-.3.3l-.2.2a.72.72,0,0,1-.2.09.92.92,0,0,1-.4,0,1,1,0,0,1-.41-.14l0,0a1.85,1.85,0,0,1-.14-.14.46.46,0,0,1-.11-.16.93.93,0,0,1-.09-.49,1.19,1.19,0,0,1,.15-.41,1.54,1.54,0,0,1,.17-.19c.1-.09.19-.19.3-.28l.13-.15a2.29,2.29,0,0,0,.32-.51,2,2,0,0,0,.16-.58,1.93,1.93,0,0,0,0-.24.63.63,0,0,0-.79-.56.31.31,0,0,0-.12.05.7.7,0,0,0-.2.15l-.31.32-1.71,1.71-1.5,1.5L167.39,483a.7.7,0,0,1-.37.19.73.73,0,0,1-.44,0,.89.89,0,0,1-.37-.2,1,1,0,0,1-.23-.35.94.94,0,0,1,0-.66.8.8,0,0,1,.18-.27c.28-.27.55-.55.83-.83l1.76-1.76,1.14-1.14,1.17-1.17a2.79,2.79,0,0,1,.42-.35,2.4,2.4,0,0,1,.61-.28,2.16,2.16,0,0,1,.66-.1,2.22,2.22,0,0,1,.63.07,2,2,0,0,1,.55.21,2.27,2.27,0,0,1,.53.39,3.08,3.08,0,0,1,.24.27,3,3,0,0,1,.23.38,2.25,2.25,0,0,1,.19.57,2.41,2.41,0,0,1,.05.65,1.9,1.9,0,0,1,0,.25s0,0,0,.08l0,0h0a2.31,2.31,0,0,1,.83,0,2.15,2.15,0,0,1,.61.18,1.87,1.87,0,0,1,.39.22,2.08,2.08,0,0,1,.32.27,1.87,1.87,0,0,1,.26.3,1.61,1.61,0,0,1,.17.28,1.69,1.69,0,0,1,.13.31,2.57,2.57,0,0,1,.14.82,2.5,2.5,0,0,1-.07.54,2.06,2.06,0,0,1-.2.54,1.67,1.67,0,0,1-.25.38l0,.05L176.32,484c-.29.29-.58.59-.87.87a.67.67,0,0,1-.14.11,2.3,2.3,0,0,1-.46.25,2.07,2.07,0,0,1-.54.15,2.15,2.15,0,0,1-.62,0l-.24,0a2.12,2.12,0,0,1-.6-.2,1.75,1.75,0,0,1-.29-.18.69.69,0,0,1-.13-.11l-.34-.34-.45-.45-.46-.46-.41-.41-.09-.09a.56.56,0,0,1-.1-.15.94.94,0,0,1-.08-.47,1.09,1.09,0,0,1,.07-.24.81.81,0,0,1,.53-.49.83.83,0,0,1,.44,0,.75.75,0,0,1,.42.22l1.27,1.26.25.26a.64.64,0,0,0,.47.21.61.61,0,0,0,.45-.19l.36-.37c.25-.24.51-.49.75-.75l.46-.46.08-.07a.61.61,0,0,0,.29-.38.65.65,0,0,0-.12-.57.93.93,0,0,0-.18-.16.58.58,0,0,0-.29-.09Z"
                  transform="translate(-162.54 -471.27)"
                />
                <path
                  class="cls-2"
                  d="M165.29,474.45a.81.81,0,0,1,.72.45,1.8,1.8,0,0,1,.06.22.57.57,0,0,1,0,.26.91.91,0,0,1-.19.41l-.07.09a6.53,6.53,0,0,0-.52.74,8.71,8.71,0,0,0-.64,1.3,6.62,6.62,0,0,0-.33,1.07,7.37,7.37,0,0,0-.13.82,7.26,7.26,0,0,0-.06.93c0,.24,0,.48,0,.72s0,.41.08.62a5.86,5.86,0,0,0,.22.92,8.94,8.94,0,0,0,.39,1,7.74,7.74,0,0,0,.76,1.3l.26.34a.44.44,0,0,1,.08.11l0,0a.85.85,0,0,1,0,.74.73.73,0,0,1-.22.27,1,1,0,0,1-.46.18h0a1,1,0,0,1-.45-.12,1,1,0,0,1-.25-.24c-.18-.22-.34-.44-.5-.68s-.32-.5-.46-.75a8.56,8.56,0,0,1-.56-1.28c-.11-.3-.2-.6-.28-.91s-.09-.41-.13-.61-.08-.45-.1-.68,0-.48-.05-.71,0-.49,0-.73,0-.31,0-.46,0-.2,0-.31c0-.27.09-.55.15-.82a9.38,9.38,0,0,1,.63-1.92,10,10,0,0,1,.55-1,10.27,10.27,0,0,1,.72-1,.79.79,0,0,1,.47-.28A.41.41,0,0,1,165.29,474.45Z"
                  transform="translate(-162.54 -471.27)"
                />
                <path
                  class="cls-2"
                  d="M181.45,480.73c0,.16,0,.33,0,.49a2.28,2.28,0,0,1,0,.26c0,.12,0,.24,0,.36s0,.31-.07.46-.07.4-.12.6-.12.47-.19.71a8.63,8.63,0,0,1-.39,1,8.74,8.74,0,0,1-.58,1.09,11.09,11.09,0,0,1-.7,1,.77.77,0,0,1-.46.28.81.81,0,0,1-.49,0,.78.78,0,0,1-.29-.21.94.94,0,0,1-.12-.18.87.87,0,0,1-.05-.55.8.8,0,0,1,.19-.35c.17-.22.34-.44.49-.68s.3-.51.44-.78a8.67,8.67,0,0,0,.51-1.31c.06-.22.11-.43.15-.65l.09-.55c0-.17,0-.35,0-.53s0-.33,0-.5,0-.37,0-.56a2.48,2.48,0,0,1,0-.27c0-.11,0-.22,0-.32a7.2,7.2,0,0,0-.16-.78,8.53,8.53,0,0,0-.38-1.07,6.67,6.67,0,0,0-.35-.71,7.09,7.09,0,0,0-.71-1.07l-.1-.13a.68.68,0,0,1-.1-.21l0-.16a.25.25,0,0,1,0-.17.8.8,0,0,1,0-.15.7.7,0,0,1,.26-.39.73.73,0,0,1,.36-.16.78.78,0,0,1,.72.22l.21.26c.17.22.33.46.48.7a8,8,0,0,1,.54.95c.15.32.28.64.4,1a8,8,0,0,1,.25.87c0,.18.09.37.12.56a4.33,4.33,0,0,1,.08.5c0,.23,0,.45.07.68S181.45,480.55,181.45,480.73Z"
                  transform="translate(-162.54 -471.27)"
                />
                <path
                  class="cls-1"
                  d="M172,472.87c-.26,0-.51,0-.75,0a7.7,7.7,0,0,0-2.62.73,7.44,7.44,0,0,0-1.56,1,.91.91,0,0,1-.16.11.83.83,0,0,1-.44.09.86.86,0,0,1-.46-.19.71.71,0,0,1-.24-.38,1.1,1.1,0,0,1,0-.16.74.74,0,0,1,.28-.68,9.36,9.36,0,0,1,1.73-1.13,9.49,9.49,0,0,1,2.05-.74c.27-.06.53-.12.8-.16l.74-.08c.38,0,.75,0,1.13,0l.54,0c.23,0,.45.06.68.11a8.63,8.63,0,0,1,.88.2,8.78,8.78,0,0,1,1.48.55,9.42,9.42,0,0,1,1.37.8c.18.13.37.27.55.42l.15.15a.66.66,0,0,1,.12.27.29.29,0,0,1,0,.09.45.45,0,0,1,0,.23.29.29,0,0,1,0,.09.75.75,0,0,1-.43.53.86.86,0,0,1-.55,0,.92.92,0,0,1-.28-.14l-.26-.21a8.12,8.12,0,0,0-1.5-.89,7.91,7.91,0,0,0-1.42-.48,6.2,6.2,0,0,0-.75-.14c-.3,0-.61-.06-.92-.07Z"
                  transform="translate(-162.54 -471.27)"
                />
                <path
                  class="cls-1"
                  d="M172,490.17h-.47l-.54,0-.69-.1c-.29-.06-.59-.13-.88-.21a9.35,9.35,0,0,1-2.83-1.34c-.19-.13-.37-.27-.55-.41a.6.6,0,0,1-.2-.25.72.72,0,0,1-.08-.54.19.19,0,0,1,0-.07.7.7,0,0,1,.24-.39.86.86,0,0,1,.48-.18h.1a.87.87,0,0,1,.48.21,6.38,6.38,0,0,0,1,.66,8.24,8.24,0,0,0,1.48.68,7.66,7.66,0,0,0,.94.25l.7.1a7.94,7.94,0,0,0,.85,0,7.63,7.63,0,0,0,.82,0l.7-.1a8.36,8.36,0,0,0,1-.27,7.65,7.65,0,0,0,1.75-.85c.25-.16.48-.33.71-.51a.59.59,0,0,1,.28-.15l.19,0a.84.84,0,0,1,.67.33.79.79,0,0,1,.13.33.53.53,0,0,1,0,.28c0,.06,0,.12-.05.17a.61.61,0,0,1-.19.28,8,8,0,0,1-.77.57,8.32,8.32,0,0,1-1,.61,8.57,8.57,0,0,1-1.55.6,11.81,11.81,0,0,1-1.21.27c-.27,0-.54.07-.82.09S172.2,490.17,172,490.17Z"
                  transform="translate(-162.54 -471.27)"
                />
                <path
                  class="cls-3"
                  d="M190.28,474.61h-1.9v6.24a1.14,1.14,0,0,1-.24.8.88.88,0,0,1-1.25,0,1.16,1.16,0,0,1-.24-.8v-6.24h-1.9a1,1,0,0,1-.66-.2.64.64,0,0,1-.22-.51.66.66,0,0,1,.23-.53,1,1,0,0,1,.65-.2h5.53a1,1,0,0,1,.67.2.68.68,0,0,1,.22.53.64.64,0,0,1-.22.51A1,1,0,0,1,190.28,474.61Z"
                  transform="translate(-162.54 -471.27)"
                />
                <path
                  class="cls-3"
                  d="M195.8,479.05h-3.13a2.06,2.06,0,0,0,.22,1,1.46,1.46,0,0,0,.57.63,1.52,1.52,0,0,0,.78.21,1.79,1.79,0,0,0,.53-.07,1.57,1.57,0,0,0,.46-.21,4,4,0,0,0,.41-.31c.12-.1.28-.25.48-.44a.52.52,0,0,1,.35-.11.57.57,0,0,1,.4.14.49.49,0,0,1,.15.38,1,1,0,0,1-.17.51,1.86,1.86,0,0,1-.51.55,2.9,2.9,0,0,1-.86.45,3.93,3.93,0,0,1-1.19.17,3.18,3.18,0,0,1-2.4-.88,3.26,3.26,0,0,1-.85-2.38,4,4,0,0,1,.21-1.32,2.92,2.92,0,0,1,.61-1,2.57,2.57,0,0,1,1-.66,3.43,3.43,0,0,1,1.31-.23,3.15,3.15,0,0,1,1.61.39,2.57,2.57,0,0,1,1,1,2.64,2.64,0,0,1,.34,1.28.8.8,0,0,1-.35.78A2.12,2.12,0,0,1,195.8,479.05Zm-3.13-.91h2.9a2,2,0,0,0-.44-1.22,1.3,1.3,0,0,0-1-.41,1.28,1.28,0,0,0-1,.41A2.07,2.07,0,0,0,192.67,478.14Z"
                  transform="translate(-162.54 -471.27)"
                />
                <path
                  class="cls-3"
                  d="M204.2,479.93a1.39,1.39,0,0,1-.18.64,2.28,2.28,0,0,1-.54.65,2.87,2.87,0,0,1-.92.49,3.83,3.83,0,0,1-1.26.19A3.06,3.06,0,0,1,199,481a3.19,3.19,0,0,1-.83-2.32,3.72,3.72,0,0,1,.38-1.74,2.65,2.65,0,0,1,1.1-1.17,3.34,3.34,0,0,1,1.72-.41,3.49,3.49,0,0,1,1.14.18,2.73,2.73,0,0,1,.88.47,2.22,2.22,0,0,1,.55.61,1.19,1.19,0,0,1,.19.6.64.64,0,0,1-.21.49.77.77,0,0,1-.52.2.48.48,0,0,1-.33-.1,1.68,1.68,0,0,1-.3-.33,2.37,2.37,0,0,0-.61-.67,1.36,1.36,0,0,0-.81-.22,1.38,1.38,0,0,0-1.15.55,2.44,2.44,0,0,0-.43,1.51,3,3,0,0,0,.11.83,2,2,0,0,0,.32.65,1.32,1.32,0,0,0,.51.4,1.59,1.59,0,0,0,.66.14,1.44,1.44,0,0,0,.82-.22,2,2,0,0,0,.61-.68,1.45,1.45,0,0,1,.32-.42.56.56,0,0,1,.41-.16.62.62,0,0,1,.49.23A.67.67,0,0,1,204.2,479.93Z"
                  transform="translate(-162.54 -471.27)"
                />
                <path
                  class="cls-4"
                  d="M207.07,473.94v2.45a3.46,3.46,0,0,1,.92-.72,2.43,2.43,0,0,1,1.16-.25,2.51,2.51,0,0,1,1.4.38,2.44,2.44,0,0,1,.93,1.09,4.06,4.06,0,0,1,.33,1.7,4.72,4.72,0,0,1-.18,1.34,3.08,3.08,0,0,1-.54,1.05,2.36,2.36,0,0,1-.85.69,2.5,2.5,0,0,1-1.1.24,2.63,2.63,0,0,1-.7-.09,1.86,1.86,0,0,1-.55-.23,2.47,2.47,0,0,1-.39-.29l-.43-.46V481a1,1,0,0,1-.21.68.75.75,0,0,1-.55.23.72.72,0,0,1-.55-.23,1,1,0,0,1-.2-.68v-7a1.16,1.16,0,0,1,.2-.73.64.64,0,0,1,.55-.25.68.68,0,0,1,.56.24A1,1,0,0,1,207.07,473.94Zm.08,4.75a2.15,2.15,0,0,0,.44,1.47,1.43,1.43,0,0,0,1.14.51,1.31,1.31,0,0,0,1-.52,2.29,2.29,0,0,0,.44-1.5,3,3,0,0,0-.18-1.09,1.61,1.61,0,0,0-.52-.71,1.3,1.3,0,0,0-.78-.25,1.44,1.44,0,0,0-.81.25,1.73,1.73,0,0,0-.57.72A3,3,0,0,0,207.15,478.69Z"
                  transform="translate(-162.54 -471.27)"
                />
                <path
                  class="cls-4"
                  d="M219.08,478.66a3.73,3.73,0,0,1-.22,1.32,2.85,2.85,0,0,1-.64,1,2.79,2.79,0,0,1-1,.67,3.87,3.87,0,0,1-2.63,0,3,3,0,0,1-1-.67,2.93,2.93,0,0,1-.64-1,3.64,3.64,0,0,1-.22-1.31,3.75,3.75,0,0,1,.22-1.33,2.85,2.85,0,0,1,.64-1,2.65,2.65,0,0,1,1-.66,3.5,3.5,0,0,1,1.31-.23,3.65,3.65,0,0,1,1.32.23,2.93,2.93,0,0,1,1,.67,3,3,0,0,1,.65,1A4,4,0,0,1,219.08,478.66Zm-1.6,0a2.37,2.37,0,0,0-.43-1.52,1.39,1.39,0,0,0-1.16-.55,1.41,1.41,0,0,0-.82.24,1.64,1.64,0,0,0-.56.72,3.14,3.14,0,0,0-.19,1.11,2.8,2.8,0,0,0,.19,1.09,1.51,1.51,0,0,0,.55.72,1.36,1.36,0,0,0,.83.25,1.39,1.39,0,0,0,1.16-.55A2.36,2.36,0,0,0,217.48,478.66Z"
                  transform="translate(-162.54 -471.27)"
                />
                <rect
                  class="cls-3"
                  x="21.23"
                  y="11.67"
                  width="35.24"
                  height="0.59"
                  rx="0.29"
                />
                <path
                  class="cls-5"
                  d="M185.28,484.5h-.9v.81h.83a.16.16,0,0,1,.13.07.36.36,0,0,1,0,.19.35.35,0,0,1,0,.18.14.14,0,0,1-.13.07h-.83v.95h.93a.15.15,0,0,1,.14.07.39.39,0,0,1,.05.2.36.36,0,0,1-.05.19.15.15,0,0,1-.14.07h-1.09a.2.2,0,0,1-.18-.09.65.65,0,0,1-.06-.32v-2.5a.83.83,0,0,1,0-.24.2.2,0,0,1,.08-.13.18.18,0,0,1,.13,0h1.06a.15.15,0,0,1,.14.07.39.39,0,0,1,0,.38A.17.17,0,0,1,185.28,484.5Z"
                  transform="translate(-162.54 -471.27)"
                />
                <path
                  class="cls-5"
                  d="M187,486.55a1.4,1.4,0,0,1-.07.44.69.69,0,0,1-.22.28.68.68,0,0,1-.35.09.58.58,0,0,1-.55-.36.66.66,0,0,1-.07-.3.35.35,0,0,1,0-.18.1.1,0,0,1,.1-.07.09.09,0,0,1,.09.05.53.53,0,0,1,.06.13.66.66,0,0,0,.14.25.29.29,0,0,0,.21.08.25.25,0,0,0,.18-.08.28.28,0,0,0,.07-.19.33.33,0,0,0-.07-.24.66.66,0,0,0-.24-.14,1.72,1.72,0,0,1-.31-.17.71.71,0,0,1-.19-.23.75.75,0,0,1-.07-.35,1,1,0,0,1,.06-.35.68.68,0,0,1,.2-.27.52.52,0,0,1,.31-.1.66.66,0,0,1,.25.05.55.55,0,0,1,.19.14.57.57,0,0,1,.12.18.51.51,0,0,1,0,.2.48.48,0,0,1,0,.18.15.15,0,0,1-.12.07.12.12,0,0,1-.1-.06.76.76,0,0,1-.09-.16.56.56,0,0,0-.1-.15.25.25,0,0,0-.15-.05.22.22,0,0,0-.17.07.28.28,0,0,0-.06.18.22.22,0,0,0,.05.16.34.34,0,0,0,.13.1l.22.1a1,1,0,0,1,.28.17.53.53,0,0,1,.16.23A.73.73,0,0,1,187,486.55Z"
                  transform="translate(-162.54 -471.27)"
                />
                <path
                  class="cls-5"
                  d="M187.62,485.19v.07a1.18,1.18,0,0,1,.21-.31.37.37,0,0,1,.26-.1.43.43,0,0,1,.31.15,1,1,0,0,1,.22.43,2.24,2.24,0,0,1,.08.67,2.82,2.82,0,0,1,0,.52,1.56,1.56,0,0,1-.13.4.76.76,0,0,1-.2.25.4.4,0,0,1-.24.09.33.33,0,0,1-.27-.11,1,1,0,0,1-.2-.31v.93c0,.27-.06.41-.18.41s-.11,0-.13-.11a.8.8,0,0,1,0-.3v-2.68a.6.6,0,0,1,0-.26.14.14,0,0,1,.12-.09.15.15,0,0,1,.13.09A.6.6,0,0,1,187.62,485.19Zm.72.9a1.73,1.73,0,0,0-.05-.42.68.68,0,0,0-.12-.27.22.22,0,0,0-.17-.09c-.11,0-.19.06-.26.2a1.76,1.76,0,0,0,0,1.17c.07.13.15.2.26.2a.21.21,0,0,0,.16-.09.57.57,0,0,0,.13-.27A1.75,1.75,0,0,0,188.34,486.09Z"
                  transform="translate(-162.54 -471.27)"
                />
                <path
                  class="cls-5"
                  d="M190,486.25h-.71a1.13,1.13,0,0,0,.05.38.55.55,0,0,0,.13.24.25.25,0,0,0,.18.08l.12,0a.24.24,0,0,0,.1-.08.38.38,0,0,0,.09-.12l.12-.17a.08.08,0,0,1,.08,0,.14.14,0,0,1,.09.05.33.33,0,0,1,0,.15.54.54,0,0,1,0,.2.71.71,0,0,1-.11.21.65.65,0,0,1-.2.17.5.5,0,0,1-.27.07.6.6,0,0,1-.55-.34,1.85,1.85,0,0,1-.2-.92,2.76,2.76,0,0,1,0-.51,1.34,1.34,0,0,1,.14-.4.66.66,0,0,1,.23-.26.53.53,0,0,1,.3-.09.51.51,0,0,1,.37.15,1,1,0,0,1,.23.4,1.61,1.61,0,0,1,.07.49c0,.16,0,.26-.07.3A.33.33,0,0,1,190,486.25Zm-.71-.35H190a1.06,1.06,0,0,0-.1-.47.25.25,0,0,0-.46,0A1.1,1.1,0,0,0,189.31,485.9Z"
                  transform="translate(-162.54 -471.27)"
                />
                <path
                  class="cls-5"
                  d="M192,486.59a.77.77,0,0,1,0,.25.85.85,0,0,1-.13.25.48.48,0,0,1-.21.19.55.55,0,0,1-.29.08.59.59,0,0,1-.53-.34,1.87,1.87,0,0,1-.19-.89,2.33,2.33,0,0,1,.09-.68,1,1,0,0,1,.25-.45.54.54,0,0,1,.4-.16.48.48,0,0,1,.26.07.86.86,0,0,1,.2.18.92.92,0,0,1,.13.24.66.66,0,0,1,0,.23.36.36,0,0,1-.05.19.14.14,0,0,1-.12.08.1.1,0,0,1-.07,0,.5.5,0,0,1-.07-.13,1,1,0,0,0-.14-.26.23.23,0,0,0-.19-.09c-.11,0-.19.08-.26.22a1.36,1.36,0,0,0-.1.59,1.66,1.66,0,0,0,0,.32.91.91,0,0,0,.07.25.36.36,0,0,0,.12.15.2.2,0,0,0,.15.06.26.26,0,0,0,.19-.09,1,1,0,0,0,.14-.26.54.54,0,0,1,.07-.17.11.11,0,0,1,.09-.06c.05,0,.08,0,.11.09A.41.41,0,0,1,192,486.59Z"
                  transform="translate(-162.54 -471.27)"
                />
                <path
                  class="cls-5"
                  d="M192.45,484.55a.16.16,0,0,1-.13-.07.49.49,0,0,1,0-.23.48.48,0,0,1,0-.22.17.17,0,0,1,.13-.08.15.15,0,0,1,.13.08.51.51,0,0,1,0,.44A.15.15,0,0,1,192.45,484.55Zm.18.64V487a.58.58,0,0,1,0,.29.15.15,0,0,1-.13.09.14.14,0,0,1-.13-.1.52.52,0,0,1,0-.28v-1.77a.5.5,0,0,1,0-.27.13.13,0,0,1,.26,0A.44.44,0,0,1,192.63,485.19Z"
                  transform="translate(-162.54 -471.27)"
                />
                <path
                  class="cls-5"
                  d="M193.94,487a.91.91,0,0,1-.26.26.45.45,0,0,1-.28.09.36.36,0,0,1-.24-.09A.69.69,0,0,1,193,487a1,1,0,0,1-.06-.35.94.94,0,0,1,.1-.43.47.47,0,0,1,.26-.24l.17-.06.24-.09.22-.1a1.32,1.32,0,0,0-.06-.36.23.23,0,0,0-.22-.11.33.33,0,0,0-.21.06,1.17,1.17,0,0,0-.12.2c0,.09-.06.15-.07.18a.1.1,0,0,1-.09,0s-.07,0-.11-.07a.39.39,0,0,1,0-.17.71.71,0,0,1,.07-.32.57.57,0,0,1,.21-.25.61.61,0,0,1,.36-.1.69.69,0,0,1,.38.09.53.53,0,0,1,.2.31,2,2,0,0,1,.06.55v.37c0,.1,0,.22,0,.34a1.61,1.61,0,0,0,0,.37,1.84,1.84,0,0,1,0,.24.34.34,0,0,1-.05.17.17.17,0,0,1-.12.08s-.08,0-.11-.09A1.07,1.07,0,0,1,193.94,487Zm0-.89-.24.1-.21.08a.23.23,0,0,0-.11.11.33.33,0,0,0-.06.21.4.4,0,0,0,.07.24.19.19,0,0,0,.16.1.32.32,0,0,0,.2-.08.6.6,0,0,0,.14-.21,1.7,1.7,0,0,0,0-.47Z"
                  transform="translate(-162.54 -471.27)"
                />
                <path
                  class="cls-5"
                  d="M194.65,487V484.3a.52.52,0,0,1,0-.28.13.13,0,0,1,.13-.1.14.14,0,0,1,.13.1.52.52,0,0,1,0,.28V487a.58.58,0,0,1,0,.29.15.15,0,0,1-.13.09.14.14,0,0,1-.13-.1A.52.52,0,0,1,194.65,487Z"
                  transform="translate(-162.54 -471.27)"
                />
                <path
                  class="cls-5"
                  d="M195.58,484.55a.15.15,0,0,1-.13-.07.39.39,0,0,1-.06-.23.38.38,0,0,1,.06-.22.17.17,0,0,1,.13-.08.15.15,0,0,1,.13.08.51.51,0,0,1,0,.44A.15.15,0,0,1,195.58,484.55Zm.18.64V487a.72.72,0,0,1,0,.29.16.16,0,0,1-.14.09s-.09,0-.13-.1a.63.63,0,0,1-.05-.28v-1.77a.62.62,0,0,1,.05-.27c0-.07.08-.1.13-.1s.1,0,.14.1A.55.55,0,0,1,195.76,485.19Z"
                  transform="translate(-162.54 -471.27)"
                />
                <path
                  class="cls-5"
                  d="M197.32,486.55a1.4,1.4,0,0,1-.07.44.69.69,0,0,1-.22.28.68.68,0,0,1-.35.09.58.58,0,0,1-.55-.36.66.66,0,0,1-.07-.3.48.48,0,0,1,0-.18.13.13,0,0,1,.11-.07.09.09,0,0,1,.09.05.53.53,0,0,1,.06.13.66.66,0,0,0,.14.25.29.29,0,0,0,.21.08.25.25,0,0,0,.18-.08.28.28,0,0,0,.07-.19.33.33,0,0,0-.07-.24.66.66,0,0,0-.24-.14,1.72,1.72,0,0,1-.31-.17.71.71,0,0,1-.19-.23.75.75,0,0,1-.07-.35,1,1,0,0,1,.06-.35.68.68,0,0,1,.2-.27.52.52,0,0,1,.31-.1.66.66,0,0,1,.25.05.55.55,0,0,1,.19.14.57.57,0,0,1,.12.18.79.79,0,0,1,0,.2.48.48,0,0,1,0,.18.15.15,0,0,1-.12.07.12.12,0,0,1-.1-.06.76.76,0,0,1-.09-.16.56.56,0,0,0-.1-.15.25.25,0,0,0-.15-.05.22.22,0,0,0-.17.07.28.28,0,0,0-.06.18.27.27,0,0,0,0,.16.5.5,0,0,0,.14.1l.22.1a1,1,0,0,1,.28.17.53.53,0,0,1,.16.23A.73.73,0,0,1,197.32,486.55Z"
                  transform="translate(-162.54 -471.27)"
                />
                <path
                  class="cls-5"
                  d="M197.65,484.9h0v-.61q0-.09,0-.15l.06-.1a.12.12,0,0,1,.09,0s.09,0,.13.09a.58.58,0,0,1,.05.14c0,.06,0,.14,0,.25v.42h.13a.14.14,0,0,1,.12.06.25.25,0,0,1,0,.16.19.19,0,0,1-.22.22h-.07v1.37a.34.34,0,0,0,0,.12s0,.05.08.05a.18.18,0,0,0,.09,0l.08,0a.09.09,0,0,1,.08.06.24.24,0,0,1,0,.15.26.26,0,0,1-.1.23.43.43,0,0,1-.28.08.33.33,0,0,1-.26-.1.48.48,0,0,1-.11-.27,2.69,2.69,0,0,1,0-.46v-1.19h-.05a.14.14,0,0,1-.12-.06.27.27,0,0,1,0-.16.25.25,0,0,1,0-.16A.15.15,0,0,1,197.65,484.9Z"
                  transform="translate(-162.54 -471.27)"
                />
                <path
                  class="cls-5"
                  d="M199.53,487a.91.91,0,0,1-.26.26.45.45,0,0,1-.28.09.36.36,0,0,1-.24-.09.69.69,0,0,1-.17-.26,1,1,0,0,1-.06-.35.94.94,0,0,1,.1-.43.47.47,0,0,1,.26-.24l.17-.06.24-.09.22-.1a1.32,1.32,0,0,0-.06-.36.23.23,0,0,0-.22-.11.33.33,0,0,0-.21.06,1.17,1.17,0,0,0-.12.2c0,.09-.06.15-.07.18a.1.1,0,0,1-.09,0s-.07,0-.11-.07a.29.29,0,0,1,0-.17.71.71,0,0,1,.07-.32.57.57,0,0,1,.21-.25.61.61,0,0,1,.36-.1.69.69,0,0,1,.38.09.53.53,0,0,1,.2.31,2,2,0,0,1,.06.55v.37c0,.1,0,.22,0,.34a1.61,1.61,0,0,0,0,.37,1.84,1.84,0,0,1,0,.24.34.34,0,0,1-.05.17.17.17,0,0,1-.12.08s-.08,0-.11-.09A1.07,1.07,0,0,1,199.53,487Zm0-.89-.24.1-.21.08a.23.23,0,0,0-.11.11.33.33,0,0,0-.06.21.4.4,0,0,0,.07.24.19.19,0,0,0,.16.1.32.32,0,0,0,.2-.08.6.6,0,0,0,.14-.21,1.7,1.7,0,0,0,0-.47Z"
                  transform="translate(-162.54 -471.27)"
                />
                <path
                  class="cls-5"
                  d="M201.42,486.55a1.15,1.15,0,0,1-.08.44.67.67,0,0,1-.21.28.69.69,0,0,1-.36.09.52.52,0,0,1-.33-.1.53.53,0,0,1-.21-.26.66.66,0,0,1-.07-.3.48.48,0,0,1,0-.18.13.13,0,0,1,.11-.07.09.09,0,0,1,.09.05.53.53,0,0,1,.06.13.66.66,0,0,0,.14.25.29.29,0,0,0,.21.08.25.25,0,0,0,.18-.08.28.28,0,0,0,.07-.19.33.33,0,0,0-.07-.24.66.66,0,0,0-.24-.14,1.72,1.72,0,0,1-.31-.17.71.71,0,0,1-.19-.23.75.75,0,0,1-.07-.35,1,1,0,0,1,.06-.35.68.68,0,0,1,.2-.27.52.52,0,0,1,.31-.1.66.66,0,0,1,.25.05.55.55,0,0,1,.19.14.57.57,0,0,1,.12.18.79.79,0,0,1,0,.2.35.35,0,0,1,0,.18.13.13,0,0,1-.12.07.11.11,0,0,1-.09-.06.76.76,0,0,1-.09-.16.56.56,0,0,0-.1-.15.25.25,0,0,0-.15-.05.22.22,0,0,0-.17.07.28.28,0,0,0-.06.18.27.27,0,0,0,0,.16l.13.1.23.1a1,1,0,0,1,.28.17.53.53,0,0,1,.16.23A.73.73,0,0,1,201.42,486.55Z"
                  transform="translate(-162.54 -471.27)"
                />
                <path
                  class="cls-5"
                  d="M202.46,487v-2.62a.8.8,0,0,1,0-.31.19.19,0,0,1,.15-.1c.06,0,.1,0,.14.1a.63.63,0,0,1,.06.31V487a.63.63,0,0,1-.06.31c0,.07-.08.1-.14.1a.17.17,0,0,1-.15-.1A.8.8,0,0,1,202.46,487Z"
                  transform="translate(-162.54 -471.27)"
                />
                <path
                  class="cls-5"
                  d="M203.61,485.19v.07a1,1,0,0,1,.21-.32.45.45,0,0,1,.27-.1.4.4,0,0,1,.26.11.72.72,0,0,1,.17.3,1,1,0,0,1,0,.25,3.12,3.12,0,0,1,0,.33V487a.58.58,0,0,1,0,.29.14.14,0,0,1-.13.09.14.14,0,0,1-.13-.1.63.63,0,0,1,0-.28v-1a1.86,1.86,0,0,0-.05-.47.21.21,0,0,0-.38-.06.67.67,0,0,0-.12.27,2.94,2.94,0,0,0,0,.52V487a.58.58,0,0,1,0,.29.15.15,0,0,1-.13.09.14.14,0,0,1-.13-.1.52.52,0,0,1,0-.28v-1.79a.62.62,0,0,1,0-.26.14.14,0,0,1,.13-.09.12.12,0,0,1,.08,0,.35.35,0,0,1,.07.12A.92.92,0,0,1,203.61,485.19Z"
                  transform="translate(-162.54 -471.27)"
                />
                <path
                  class="cls-5"
                  d="M204.91,484.9H205v-.19a1.91,1.91,0,0,1,0-.46.44.44,0,0,1,.15-.25.47.47,0,0,1,.28-.08c.22,0,.32.09.32.27a.32.32,0,0,1,0,.14c0,.05,0,.07-.08.07l-.07,0h-.09a.12.12,0,0,0-.13.1,1,1,0,0,0,0,.28v.15h.09a.19.19,0,0,1,.21.21c0,.1,0,.17,0,.19a.25.25,0,0,1-.16,0h-.09V487a.52.52,0,0,1-.05.28.13.13,0,0,1-.26,0A.52.52,0,0,1,205,487v-1.64h-.1a.15.15,0,0,1-.13-.06.25.25,0,0,1-.05-.16C204.72,485,204.79,484.9,204.91,484.9Z"
                  transform="translate(-162.54 -471.27)"
                />
                <path
                  class="cls-5"
                  d="M207.19,486.1a2.59,2.59,0,0,1-.05.51,1.11,1.11,0,0,1-.15.4.66.66,0,0,1-.23.26.55.55,0,0,1-.6,0,.73.73,0,0,1-.23-.26,1.19,1.19,0,0,1-.15-.4,2.59,2.59,0,0,1-.05-.51,2.67,2.67,0,0,1,.05-.51,1.34,1.34,0,0,1,.15-.4.73.73,0,0,1,.23-.26.55.55,0,0,1,.6,0,.73.73,0,0,1,.23.26,1.19,1.19,0,0,1,.15.4A2.76,2.76,0,0,1,207.19,486.1Zm-.37,0a1.36,1.36,0,0,0-.1-.59.29.29,0,0,0-.26-.21.23.23,0,0,0-.19.1.57.57,0,0,0-.13.27,1.91,1.91,0,0,0,0,.43,1.85,1.85,0,0,0,0,.43.57.57,0,0,0,.13.27.23.23,0,0,0,.19.1.29.29,0,0,0,.26-.21A1.36,1.36,0,0,0,206.82,486.1Z"
                  transform="translate(-162.54 -471.27)"
                />
                <path
                  class="cls-5"
                  d="M207.84,486.47V487a.58.58,0,0,1-.05.29.15.15,0,0,1-.13.09.14.14,0,0,1-.13-.09.58.58,0,0,1-.05-.29v-1.72q0-.42.18-.42a.15.15,0,0,1,.13.1,1,1,0,0,1,0,.29,1.31,1.31,0,0,1,.14-.29.21.21,0,0,1,.18-.1.39.39,0,0,1,.23.1.34.34,0,0,1,.1.26.38.38,0,0,1,0,.19.13.13,0,0,1-.1.07l-.1,0a.27.27,0,0,0-.14,0,.16.16,0,0,0-.13.07.71.71,0,0,0-.08.21,2.71,2.71,0,0,0,0,.33C207.85,486.12,207.84,486.28,207.84,486.47Z"
                  transform="translate(-162.54 -471.27)"
                />
                <path
                  class="cls-5"
                  d="M209.9,486.15V487a.56.56,0,0,1-.05.29.15.15,0,0,1-.14.1.14.14,0,0,1-.13-.1.56.56,0,0,1-.05-.29v-1c0-.15,0-.27,0-.36a.93.93,0,0,0-.05-.21.14.14,0,0,0-.14-.08c-.12,0-.19.07-.23.21a2.17,2.17,0,0,0-.06.59V487a.69.69,0,0,1,0,.29c0,.07-.08.1-.14.1a.14.14,0,0,1-.13-.1.55.55,0,0,1-.06-.29V485.2a.62.62,0,0,1,.05-.27.14.14,0,0,1,.13-.09.14.14,0,0,1,.12.09.37.37,0,0,1,0,.23v.06a.82.82,0,0,1,.21-.28.36.36,0,0,1,.48,0,.74.74,0,0,1,.16.28.81.81,0,0,1,.2-.28.36.36,0,0,1,.49,0,.56.56,0,0,1,.17.28,2.3,2.3,0,0,1,0,.53V487a.69.69,0,0,1,0,.29c0,.07-.08.1-.14.1a.14.14,0,0,1-.13-.1.55.55,0,0,1-.06-.29v-1a2.92,2.92,0,0,0,0-.32.39.39,0,0,0-.05-.2.14.14,0,0,0-.14-.08.17.17,0,0,0-.13.07.5.5,0,0,0-.11.19A3.21,3.21,0,0,0,209.9,486.15Z"
                  transform="translate(-162.54 -471.27)"
                />
                <path
                  class="cls-5"
                  d="M212,487a.89.89,0,0,1-.25.26.49.49,0,0,1-.28.09.38.38,0,0,1-.25-.09.68.68,0,0,1-.16-.26,1,1,0,0,1-.06-.35.94.94,0,0,1,.09-.43.52.52,0,0,1,.27-.24l.17-.06.24-.09.21-.1a.84.84,0,0,0-.06-.36.21.21,0,0,0-.21-.11.29.29,0,0,0-.21.06.56.56,0,0,0-.12.2,1.87,1.87,0,0,0-.07.18.12.12,0,0,1-.2,0,.29.29,0,0,1-.05-.17.88.88,0,0,1,.07-.32.59.59,0,0,1,.22-.25.57.57,0,0,1,.36-.1.69.69,0,0,1,.38.09.52.52,0,0,1,.19.31,2,2,0,0,1,.06.55v.71a2.4,2.4,0,0,0,0,.37,1.12,1.12,0,0,1,0,.24.27.27,0,0,1-.06.17.14.14,0,0,1-.12.08s-.07,0-.11-.09S212.09,487.13,212,487Zm0-.89-.23.1-.22.08a.29.29,0,0,0-.11.11.33.33,0,0,0-.05.21.48.48,0,0,0,.06.24.21.21,0,0,0,.17.1.34.34,0,0,0,.2-.08.57.57,0,0,0,.13-.21,1.7,1.7,0,0,0,.05-.47ZM211.8,484H212c.05,0,.07,0,.07,0l-.07.14-.16.25a1.2,1.2,0,0,1-.1.15.27.27,0,0,1-.17.06s-.05,0-.05-.06a.53.53,0,0,1,0-.13l.06-.19a1.23,1.23,0,0,1,.09-.21A.17.17,0,0,1,211.8,484Z"
                  transform="translate(-162.54 -471.27)"
                />
                <path
                  class="cls-5"
                  d="M212.77,484.9h0v-.37a1.63,1.63,0,0,1,0-.24.61.61,0,0,1,0-.15.36.36,0,0,1,.07-.1.1.1,0,0,1,.09,0s.08,0,.12.09a.34.34,0,0,1,0,.14,1.7,1.7,0,0,1,0,.25v.42h.13a.12.12,0,0,1,.12.06.25.25,0,0,1,0,.16.25.25,0,0,1-.05.17.23.23,0,0,1-.17,0h-.07v1.14a1.48,1.48,0,0,0,0,.23.21.21,0,0,0,0,.12.07.07,0,0,0,.08.05.18.18,0,0,0,.09,0l.09,0s.05,0,.08.06a.33.33,0,0,1,0,.15.29.29,0,0,1-.09.23.47.47,0,0,1-.28.08.31.31,0,0,1-.26-.1.48.48,0,0,1-.12-.27,2.69,2.69,0,0,1,0-.46v-1.19h-.05a.14.14,0,0,1-.12-.06.38.38,0,0,1,0-.16.25.25,0,0,1,.05-.16A.13.13,0,0,1,212.77,484.9Z"
                  transform="translate(-162.54 -471.27)"
                />
                <path
                  class="cls-5"
                  d="M213.91,484.55a.16.16,0,0,1-.13-.07.39.39,0,0,1-.05-.23.38.38,0,0,1,.05-.22.17.17,0,0,1,.13-.08.15.15,0,0,1,.13.08.51.51,0,0,1,0,.44A.15.15,0,0,1,213.91,484.55Zm.18.64V487a.58.58,0,0,1-.05.29.15.15,0,0,1-.13.09.13.13,0,0,1-.13-.1.52.52,0,0,1-.05-.28v-1.77a.5.5,0,0,1,.05-.27.13.13,0,0,1,.13-.1.14.14,0,0,1,.13.1A.44.44,0,0,1,214.09,485.19Z"
                  transform="translate(-162.54 -471.27)"
                />
                <path
                  class="cls-5"
                  d="M215.79,486.59a1.18,1.18,0,0,1,0,.25.85.85,0,0,1-.13.25.63.63,0,0,1-.21.19.57.57,0,0,1-.29.08.59.59,0,0,1-.53-.34,1.76,1.76,0,0,1-.19-.89,2.33,2.33,0,0,1,.09-.68,1,1,0,0,1,.25-.45.54.54,0,0,1,.4-.16.48.48,0,0,1,.26.07.86.86,0,0,1,.2.18.9.9,0,0,1,.12.24.68.68,0,0,1,.05.23.36.36,0,0,1-.05.19.14.14,0,0,1-.12.08.12.12,0,0,1-.08,0,.53.53,0,0,1-.06-.13,1.45,1.45,0,0,0-.14-.26.23.23,0,0,0-.19-.09c-.11,0-.2.08-.26.22a1.36,1.36,0,0,0-.1.59c0,.11,0,.22,0,.32a1.47,1.47,0,0,0,.08.25.45.45,0,0,0,.11.15.25.25,0,0,0,.16.06.23.23,0,0,0,.18-.09.63.63,0,0,0,.14-.26.91.91,0,0,1,.08-.17.1.1,0,0,1,.09-.06c.05,0,.08,0,.11.09A.41.41,0,0,1,215.79,486.59Z"
                  transform="translate(-162.54 -471.27)"
                />
                <path
                  class="cls-5"
                  d="M217.48,486.1a2.59,2.59,0,0,1,0,.51,1.68,1.68,0,0,1-.15.4.66.66,0,0,1-.23.26.55.55,0,0,1-.6,0,.73.73,0,0,1-.23-.26,1.19,1.19,0,0,1-.15-.4,2.59,2.59,0,0,1,0-.51,2.67,2.67,0,0,1,0-.51,1.11,1.11,0,0,1,.15-.4.73.73,0,0,1,.23-.26.54.54,0,0,1,.6,0,.73.73,0,0,1,.23.26,1.45,1.45,0,0,1,.15.4A2.76,2.76,0,0,1,217.48,486.1Zm-.37,0a1.36,1.36,0,0,0-.1-.59.29.29,0,0,0-.26-.21.22.22,0,0,0-.19.1.57.57,0,0,0-.13.27,1.91,1.91,0,0,0,0,.43,1.85,1.85,0,0,0,0,.43.57.57,0,0,0,.13.27.22.22,0,0,0,.19.1.29.29,0,0,0,.26-.21A1.36,1.36,0,0,0,217.11,486.1Z"
                  transform="translate(-162.54 -471.27)"
                />
                <path
                  class="cls-5"
                  d="M219,486.55a1.15,1.15,0,0,1-.08.44.67.67,0,0,1-.21.28.69.69,0,0,1-.36.09.52.52,0,0,1-.33-.1.53.53,0,0,1-.21-.26.66.66,0,0,1-.07-.3.48.48,0,0,1,0-.18.13.13,0,0,1,.11-.07.09.09,0,0,1,.09.05.53.53,0,0,1,.06.13.66.66,0,0,0,.14.25.29.29,0,0,0,.21.08.25.25,0,0,0,.18-.08.28.28,0,0,0,.07-.19.33.33,0,0,0-.07-.24.66.66,0,0,0-.24-.14,1.72,1.72,0,0,1-.31-.17.71.71,0,0,1-.19-.23.75.75,0,0,1-.07-.35,1,1,0,0,1,.06-.35.68.68,0,0,1,.2-.27.52.52,0,0,1,.31-.1.66.66,0,0,1,.25.05.55.55,0,0,1,.19.14.57.57,0,0,1,.12.18.79.79,0,0,1,0,.2.35.35,0,0,1,0,.18.13.13,0,0,1-.12.07.11.11,0,0,1-.09-.06.76.76,0,0,1-.09-.16.56.56,0,0,0-.1-.15.25.25,0,0,0-.15-.05.22.22,0,0,0-.17.07.28.28,0,0,0-.06.18.27.27,0,0,0,0,.16l.13.1.23.1a1,1,0,0,1,.28.17.63.63,0,0,1,.16.23A.73.73,0,0,1,219,486.55Z"
                  transform="translate(-162.54 -471.27)"
                />
              </svg>